<svg width="24" height="24" viewBox="0 0 24 24" fill="none" xmlns="http://www.w3.org/2000/svg">
<path d="M22 5.97338C21.2645 6.30754 20.4744 6.53333 19.6438 6.63538C20.4911 6.11517 21.1412 5.28969 21.4477 4.30707C20.655 4.78935 19.7768 5.13977 18.8422 5.32763C18.0935 4.51118 17.0277 4 15.8474 4C13.582 4 11.7446 5.88396 11.7446 8.20866C11.7446 8.53741 11.7816 8.85712 11.8503 9.166C8.43883 8.98989 5.41672 7.31455 3.39258 4.76948C3.04025 5.39265 2.83766 6.11517 2.83766 6.88465C2.83766 8.34414 3.56258 9.63293 4.66273 10.3871C3.98978 10.3645 3.35735 10.1757 2.80419 9.86052V9.91471C2.80419 11.9531 4.21792 13.6537 6.09583 14.0403C5.75055 14.136 5.38853 14.1866 5.01506 14.1866C4.75081 14.1866 4.49273 14.1613 4.24258 14.1125C4.76491 15.7834 6.27993 17.0008 8.07593 17.0333C6.67101 18.1622 4.90144 18.8351 2.97948 18.8351C2.64829 18.8351 2.3215 18.8152 2 18.7764C3.81626 19.9712 5.97252 20.6667 8.28909 20.6667C15.8378 20.6667 19.9644 14.2561 19.9644 8.69636C19.9644 8.51573 19.96 8.3333 19.9521 8.15267C20.7536 7.5584 21.4495 6.81872 21.9982 5.97608L22 5.97338Z" fill="black"/>
</svg>
