<svg width="48" height="48" viewBox="0 0 48 48" fill="none" xmlns="http://www.w3.org/2000/svg">
<rect width="48" height="48" rx="12" fill="black"/>
<path d="M17.8024 31.4878L16.8366 28.4443H17.5964L18.2918 30.7881H17.9612L18.6481 28.4443H19.2619L19.9488 30.7881H19.6225L20.3179 28.4443H21.0734L20.1033 31.4878H19.4852L18.7983 29.1483H19.1074L18.4249 31.4878H17.8024ZM22.7704 31.5436C22.5357 31.5436 22.3196 31.5035 22.1222 31.4234C21.9247 31.3433 21.7516 31.2317 21.6028 31.0886C21.4568 30.9455 21.3423 30.7781 21.2593 30.5863C21.1763 30.3917 21.1349 30.1828 21.1349 29.9596C21.1349 29.7364 21.1749 29.5303 21.255 29.3415C21.338 29.1497 21.4525 28.9823 21.5985 28.8392C21.7444 28.6961 21.9161 28.5859 22.1136 28.5087C22.311 28.4285 22.5271 28.3885 22.7618 28.3885C22.9964 28.3885 23.2125 28.4285 23.41 28.5087C23.6074 28.5859 23.7791 28.6961 23.9251 28.8392C24.071 28.9823 24.1841 29.1497 24.2642 29.3415C24.3472 29.5332 24.3887 29.7407 24.3887 29.9639C24.3887 30.1871 24.3472 30.3946 24.2642 30.5863C24.1841 30.7781 24.071 30.9469 23.9251 31.0929C23.7791 31.236 23.6074 31.3476 23.41 31.4277C23.2154 31.505 23.0022 31.5436 22.7704 31.5436ZM22.7618 30.8568C22.9335 30.8568 23.0823 30.8196 23.2082 30.7452C23.3341 30.6708 23.4314 30.5663 23.5001 30.4318C23.5688 30.2973 23.6031 30.1399 23.6031 29.9596C23.6031 29.828 23.5831 29.7078 23.543 29.599C23.5058 29.4903 23.45 29.3973 23.3756 29.32C23.3012 29.2399 23.2125 29.1783 23.1095 29.1354C23.0065 29.0925 22.8906 29.071 22.7618 29.071C22.5901 29.071 22.4413 29.1082 22.3153 29.1826C22.1894 29.2542 22.0921 29.3572 22.0234 29.4917C21.9548 29.6262 21.9204 29.7822 21.9204 29.9596C21.9204 30.097 21.939 30.2215 21.9762 30.3331C22.0163 30.4418 22.0735 30.5362 22.1479 30.6164C22.2223 30.6936 22.311 30.7537 22.4141 30.7967C22.5171 30.8367 22.633 30.8568 22.7618 30.8568ZM25.3826 30.2558V29.7063H25.9621C26.088 29.7063 26.1839 29.6763 26.2497 29.6162C26.3184 29.5532 26.3527 29.4688 26.3527 29.3629C26.3527 29.2599 26.3184 29.1769 26.2497 29.1139C26.1839 29.0481 26.088 29.0152 25.9621 29.0152H25.3826V28.4443H26.0694C26.2754 28.4443 26.4557 28.4829 26.6103 28.5602C26.7677 28.6375 26.8907 28.7433 26.9794 28.8778C27.0682 29.0123 27.1125 29.1697 27.1125 29.35C27.1125 29.5303 27.0667 29.6892 26.9751 29.8265C26.8864 29.961 26.7619 30.0669 26.6017 30.1442C26.4414 30.2186 26.254 30.2558 26.0393 30.2558H25.3826ZM24.773 31.4878V28.4443H25.5414V31.4878H24.773ZM26.4214 31.4878L25.5371 30.1828L26.2282 30.0154L27.31 31.4878H26.4214ZM28.0801 31.4878V30.8267H28.8099C28.9816 30.8267 29.1304 30.7938 29.2563 30.728C29.3851 30.6622 29.4839 30.5649 29.5525 30.4361C29.6212 30.3044 29.6556 30.1456 29.6556 29.9596C29.6556 29.7764 29.6198 29.6219 29.5482 29.496C29.4796 29.3672 29.3823 29.2699 29.2563 29.2041C29.1304 29.1383 28.9816 29.1054 28.8099 29.1054H28.0458V28.4443H28.8142C29.0489 28.4443 29.2649 28.4815 29.4624 28.5559C29.6599 28.6274 29.8316 28.7305 29.9775 28.865C30.1235 28.9995 30.2365 29.1597 30.3166 29.3457C30.3996 29.5318 30.4411 29.7378 30.4411 29.9639C30.4411 30.1928 30.3996 30.4003 30.3166 30.5863C30.2365 30.7723 30.1235 30.9326 29.9775 31.0671C29.8316 31.2016 29.6599 31.3061 29.4624 31.3805C29.2678 31.452 29.0546 31.4878 28.8228 31.4878H28.0801ZM27.5607 31.4878V28.4443H28.3291V31.4878H27.5607Z" fill="#CBFF01"/>
<path d="M17.7428 35.974C17.511 35.974 17.2964 35.9353 17.0989 35.8581C16.9043 35.7779 16.7326 35.6663 16.5838 35.5232C16.4379 35.3802 16.3234 35.2142 16.2404 35.0253C16.1603 34.8336 16.1202 34.6261 16.1202 34.4029C16.1202 34.1768 16.1617 33.9693 16.2447 33.7804C16.3305 33.5887 16.4493 33.4227 16.601 33.2825C16.7527 33.1394 16.9287 33.0292 17.129 32.9519C17.3322 32.8718 17.5482 32.8317 17.7772 32.8317C18.049 32.8317 18.2952 32.8804 18.5155 32.9777C18.7359 33.0721 18.9147 33.2038 19.0521 33.3726L18.537 33.8877C18.434 33.7647 18.3209 33.6731 18.1979 33.613C18.0748 33.55 17.9317 33.5186 17.7686 33.5186C17.6026 33.5186 17.4538 33.5558 17.3221 33.6302C17.1934 33.7017 17.0903 33.8033 17.0131 33.935C16.9358 34.0666 16.8972 34.2211 16.8972 34.3986C16.8972 34.576 16.9329 34.732 17.0045 34.8665C17.0789 35.001 17.1791 35.1054 17.305 35.1798C17.4338 35.2542 17.5811 35.2914 17.7471 35.2914C17.9131 35.2914 18.0533 35.26 18.1678 35.197C18.2851 35.134 18.3739 35.0425 18.434 34.9223C18.4969 34.8021 18.5284 34.659 18.5284 34.493L19.0478 34.8278L17.6613 34.7935V34.1668H19.3011V34.2827C19.3011 34.6461 19.2353 34.9537 19.1036 35.2056C18.972 35.4574 18.7888 35.6492 18.5541 35.7808C18.3223 35.9096 18.0519 35.974 17.7428 35.974ZM19.317 35.9268L20.4975 32.8832H21.2402L22.4078 35.9268H21.605L20.725 33.3683H21.0041L20.1026 35.9268H19.317ZM20.0339 35.3945V34.7849H21.7124V35.3945H20.0339ZM22.6927 35.9268V32.8832H23.2465L24.4141 34.6475H24.1522L25.3155 32.8832H25.8693V35.9268H25.1095V34.1539L25.2297 34.1882L24.53 35.2399H24.032L23.3366 34.1882L23.4568 34.1539V35.9268H22.6927ZM26.4111 35.9268V32.8832H27.1795V35.9268H26.4111ZM27.0206 35.9268V35.2786H28.669V35.9268H27.0206ZM27.0206 34.6905V34.0594H28.5145V34.6905H27.0206ZM27.0206 33.5314V32.8832H28.6433V33.5314H27.0206ZM29.9799 35.974C29.7252 35.974 29.5034 35.9353 29.3145 35.8581C29.1285 35.7808 28.9582 35.6592 28.8037 35.4932L29.2888 35.0038C29.3947 35.1154 29.5077 35.2013 29.6279 35.2614C29.7481 35.3186 29.884 35.3472 30.0357 35.3472C30.1645 35.3472 30.2632 35.3258 30.3319 35.2829C30.4034 35.2371 30.4392 35.1755 30.4392 35.0983C30.4392 35.0267 30.4135 34.9681 30.3619 34.9223C30.3104 34.8736 30.2418 34.8321 30.1559 34.7978C30.0729 34.7606 29.9799 34.7262 29.8769 34.6948C29.7767 34.6604 29.6751 34.6204 29.5721 34.5746C29.4719 34.5259 29.3789 34.4672 29.2931 34.3986C29.2101 34.3299 29.1428 34.244 29.0913 34.141C29.0398 34.038 29.014 33.9106 29.014 33.759C29.014 33.5644 29.0598 33.3984 29.1514 33.261C29.2458 33.1236 29.3761 33.0177 29.542 32.9433C29.708 32.8689 29.9012 32.8317 30.1216 32.8317C30.3419 32.8317 30.5451 32.8689 30.7311 32.9433C30.9171 33.0177 31.0702 33.1208 31.1904 33.2524L30.7011 33.7375C30.6095 33.6459 30.5165 33.5772 30.422 33.5314C30.3276 33.4857 30.2246 33.4628 30.113 33.4628C30.0071 33.4628 29.9241 33.4814 29.864 33.5186C29.8039 33.5558 29.7738 33.6087 29.7738 33.6774C29.7738 33.7461 29.7996 33.8019 29.8511 33.8448C29.9026 33.8877 29.9699 33.9264 30.0529 33.9607C30.1387 33.9922 30.2317 34.0251 30.3319 34.0594C30.4349 34.0938 30.5365 34.1338 30.6367 34.1796C30.7368 34.2254 30.8284 34.2841 30.9114 34.3556C30.9973 34.4272 31.0659 34.5173 31.1175 34.6261C31.169 34.7348 31.1947 34.8665 31.1947 35.021C31.1947 35.3244 31.0874 35.559 30.8728 35.725C30.661 35.891 30.3634 35.974 29.9799 35.974Z" fill="#CBFF01"/>
<path fill-rule="evenodd" clip-rule="evenodd" d="M21.4368 20.3628C20.7254 21.5281 19.931 22.7541 19.0608 23.993C18.878 24.1762 18.6 24.6525 18.9511 25.0923C19.1706 25.3854 19.7411 25.8838 20.2677 25.532C21.0361 24.8126 22.1291 23.7646 23.3144 22.5881C24.5642 24.0116 25.756 25.2354 26.6311 25.8618C26.7824 25.9701 27.07 25.9718 27.5089 25.642C27.5165 25.6362 27.5244 25.6303 27.5324 25.6243C27.7552 25.4576 28.1171 25.1869 27.9478 24.7625C27.3677 23.8102 26.4345 22.2124 25.4742 20.3993C26.812 19.0117 28.0943 17.6127 29.0097 16.4711C29.2867 16.1257 29.2442 15.6285 28.909 15.3393C28.1698 14.7014 27.0902 13.8661 26.0763 13.3379C25.6617 13.1219 25.1748 13.3388 24.9817 13.7646C24.6537 14.4881 24.1875 15.449 23.595 16.5706C23.2306 15.7515 22.9019 14.9462 22.6345 14.1887C22.4697 13.7219 21.9644 13.4592 21.504 13.6411C20.5275 14.0268 19.2505 14.6181 18.3925 15.2684C18.058 15.5219 18.0335 15.992 18.2852 16.3279C19.1194 17.4416 20.2457 18.903 21.4368 20.3628Z" fill="#CBFF01"/>
</svg>
