<svg width="48" height="48" viewBox="0 0 48 48" fill="none" xmlns="http://www.w3.org/2000/svg">
<rect width="48" height="48" rx="12" fill="black"/>
<path d="M28 15.4678C29.4817 16.2041 30.5 17.7331 30.5 19.5C30.5 21.2669 29.4817 22.7959 28 23.5322M30 28.7664C31.5115 29.4503 32.8725 30.565 34 32M14 32C15.9465 29.5226 18.5892 28 21.5 28C24.4108 28 27.0535 29.5226 29 32M26 19.5C26 21.9853 23.9853 24 21.5 24C19.0147 24 17 21.9853 17 19.5C17 17.0147 19.0147 15 21.5 15C23.9853 15 26 17.0147 26 19.5Z" stroke="#CBFF01" stroke-width="2" stroke-linecap="round" stroke-linejoin="round"/>
</svg>
