<svg width="48" height="48" viewBox="0 0 48 48" fill="none" xmlns="http://www.w3.org/2000/svg">
<rect width="48" height="48" rx="12" fill="black"/>
<path d="M18 24H22M20 22V26M27 25H27.01M30 23H30.01M17.2 30H30.8C31.9201 30 32.4802 30 32.908 29.782C33.2843 29.5903 33.5903 29.2843 33.782 28.908C34 28.4802 34 27.9201 34 26.8V21.2C34 20.0799 34 19.5198 33.782 19.092C33.5903 18.7157 33.2843 18.4097 32.908 18.218C32.4802 18 31.9201 18 30.8 18H17.2C16.0799 18 15.5198 18 15.092 18.218C14.7157 18.4097 14.4097 18.7157 14.218 19.092C14 19.5198 14 20.0799 14 21.2V26.8C14 27.9201 14 28.4802 14.218 28.908C14.4097 29.2843 14.7157 29.5903 15.092 29.782C15.5198 30 16.0799 30 17.2 30Z" stroke="#CBFF01" stroke-width="2" stroke-linecap="round" stroke-linejoin="round"/>
</svg>
