<svg width="24" height="24" viewBox="0 0 24 24" fill="none" xmlns="http://www.w3.org/2000/svg">
<path fill-rule="evenodd" clip-rule="evenodd" d="M15.6301 17.65C16.1438 18.2833 16.7603 19 16.7603 19C20.5445 18.8833 22 16.4667 22 16.4667C22 11.1001 19.5342 6.75012 19.5342 6.75012C17.0685 4.95014 14.7226 5.00014 14.7226 5.00014L14.4829 5.2668C17.3938 6.13346 18.7466 7.38345 18.7466 7.38345C16.9658 6.43346 15.2192 5.9668 13.5925 5.78346C12.3596 5.65013 11.1781 5.68347 10.1336 5.8168C10.0439 5.8168 9.96723 5.8295 9.88085 5.84381C9.86828 5.8459 9.85551 5.84801 9.84246 5.85013C9.24315 5.90013 7.78767 6.11679 5.95548 6.90012C5.32192 7.18345 4.94521 7.38345 4.94521 7.38345C4.94521 7.38345 6.36644 6.0668 9.44863 5.20014L9.2774 5.00014C9.2774 5.00014 6.93151 4.95014 4.46575 6.75012C4.46575 6.75012 2 11.1001 2 16.4667C2 16.4667 3.43836 18.8833 7.2226 19C7.2226 19 7.85616 18.25 8.36986 17.6167C6.19521 16.9834 5.37329 15.65 5.37329 15.65C5.37329 15.65 5.54452 15.7667 5.85274 15.9334C5.86986 15.95 5.88699 15.9667 5.92123 15.9834C5.94692 16 5.9726 16.0125 5.99829 16.025C6.02397 16.0375 6.04966 16.05 6.07534 16.0667C6.50343 16.3 6.93151 16.4834 7.32534 16.6334C8.0274 16.9 8.86644 17.1667 9.84246 17.35C11.1267 17.5833 12.6336 17.6667 14.2774 17.3667C15.0822 17.2334 15.9041 17 16.7603 16.65C17.3596 16.4334 18.0274 16.1167 18.7295 15.6667C18.7295 15.6667 17.8733 17.0334 15.6301 17.65ZM7.0513 13.0667C7.0513 12.0501 7.82184 11.2167 8.79786 11.2167C9.77388 11.2167 10.5615 12.0501 10.5444 13.0667C10.5444 14.0834 9.77388 14.9167 8.79786 14.9167C7.83896 14.9167 7.0513 14.0834 7.0513 13.0667ZM13.3012 13.0667C13.3012 12.0501 14.0718 11.2167 15.0478 11.2167C16.0238 11.2167 16.7944 12.0501 16.7944 13.0667C16.7944 14.0834 16.0238 14.9167 15.0478 14.9167C14.0889 14.9167 13.3012 14.0834 13.3012 13.0667Z" fill="black"/>
</svg>
