<svg width="22" height="22" viewBox="0 0 22 22" fill="none" xmlns="http://www.w3.org/2000/svg">
<path d="M18.2431 15.1443C18.2208 15.2121 17.8714 16.4306 17.0131 17.6835C16.2702 18.7643 15.5021 19.8538 14.2889 19.873C13.0958 19.8939 12.714 19.1611 11.3518 19.1611C9.99132 19.1611 9.56362 19.8538 8.43607 19.8939C7.27044 19.9417 6.37349 18.7133 5.6278 17.6378C4.10382 15.4346 2.93039 11.3945 4.50415 8.68689C5.27846 7.33219 6.67023 6.47108 8.18581 6.44755C9.32794 6.42596 10.4146 7.22125 11.1083 7.22125C11.821 7.22125 13.1355 6.25894 14.5223 6.40292C15.1029 6.42766 16.7271 6.64566 17.7735 8.1623C17.6912 8.21832 15.8302 9.31654 15.8509 11.5517C15.8789 14.2501 18.2179 15.1351 18.2431 15.1443ZM13.6148 4.95751C14.2402 4.19467 14.6511 3.14607 14.543 2.10471C13.6501 2.13973 12.5622 2.69769 11.9156 3.456C11.344 4.11759 10.8401 5.18253 10.9806 6.21181C11.9727 6.27207 12.9928 5.69228 13.6148 4.95751Z" fill="#007FF5"/>
</svg>
