<svg width="48" height="43" viewBox="0 0 48 43" fill="none" xmlns="http://www.w3.org/2000/svg">
<path d="M4.68292 42.5183C2.09661 42.5183 -9.16461e-08 40.4217 -2.04697e-07 37.8354L-1.65037e-06 4.76219C-1.76342e-06 2.17588 2.09662 0.0792617 4.68293 0.0792616L35.0726 0.0792602C36.8888 0.0792602 38.5413 1.12945 39.3124 2.77385L47.0675 19.3104C47.6583 20.5702 47.6583 22.0274 47.0675 23.2871L39.3124 39.8237C38.5413 41.4681 36.8888 42.5183 35.0726 42.5183L4.68292 42.5183Z" fill="#CBFF01"/>
<path d="M40.8291 11.4941L42.3657 14.7746L44.5084 19.3492C45.098 20.6078 45.098 22.0633 44.5084 23.3219L42.3657 27.8965L40.8291 31.177L40.8291 11.4941Z" fill="black"/>
<path d="M11.6301 30.616L10.1814 26.0507H11.3211L12.3642 29.5664H11.8684L12.8986 26.0507H13.8194L14.8497 29.5664H14.3603L15.4034 26.0507H16.5367L15.0815 30.616H14.1542L13.124 27.1067H13.5876L12.5638 30.616H11.6301ZM19.0821 30.6997C18.7301 30.6997 18.406 30.6396 18.1098 30.5194C17.8136 30.3992 17.5539 30.2318 17.3306 30.0171C17.1117 29.8025 16.94 29.5514 16.8155 29.2638C16.691 28.9719 16.6288 28.6585 16.6288 28.3237C16.6288 27.9888 16.6889 27.6798 16.8091 27.3965C16.9336 27.1088 17.1053 26.8577 17.3242 26.6431C17.5431 26.4285 17.8007 26.2632 18.0969 26.1473C18.3931 26.0271 18.7172 25.967 19.0692 25.967C19.4212 25.967 19.7453 26.0271 20.0415 26.1473C20.3377 26.2632 20.5952 26.4285 20.8142 26.6431C21.0331 26.8577 21.2026 27.1088 21.3228 27.3965C21.4473 27.6841 21.5096 27.9953 21.5096 28.3301C21.5096 28.6649 21.4473 28.9762 21.3228 29.2638C21.2026 29.5514 21.0331 29.8046 20.8142 30.0236C20.5952 30.2382 20.3377 30.4056 20.0415 30.5258C19.7496 30.6417 19.4298 30.6997 19.0821 30.6997ZM19.0692 29.6694C19.3267 29.6694 19.55 29.6136 19.7388 29.502C19.9277 29.3904 20.0737 29.2337 20.1767 29.032C20.2797 28.8302 20.3312 28.5941 20.3312 28.3237C20.3312 28.1262 20.3012 27.9459 20.2411 27.7828C20.1853 27.6197 20.1016 27.4802 19.99 27.3643C19.8784 27.2441 19.7453 27.1518 19.5907 27.0874C19.4362 27.023 19.2624 26.9908 19.0692 26.9908C18.8116 26.9908 18.5884 27.0466 18.3995 27.1582C18.2106 27.2655 18.0647 27.4201 17.9617 27.6218C17.8586 27.8236 17.8071 28.0575 17.8071 28.3237C17.8071 28.5297 17.835 28.7165 17.8908 28.8839C17.9509 29.047 18.0368 29.1886 18.1484 29.3088C18.26 29.4247 18.3931 29.5149 18.5476 29.5793C18.7022 29.6394 18.876 29.6694 19.0692 29.6694ZM23.0004 28.768V27.9438H23.8696C24.0585 27.9438 24.2023 27.8987 24.301 27.8086C24.4041 27.7141 24.4556 27.5875 24.4556 27.4286C24.4556 27.2741 24.4041 27.1496 24.301 27.0552C24.2023 26.9565 24.0585 26.9071 23.8696 26.9071H23.0004V26.0507H24.0306C24.3397 26.0507 24.6101 26.1086 24.8419 26.2246C25.078 26.3405 25.2626 26.4993 25.3957 26.701C25.5287 26.9028 25.5953 27.1389 25.5953 27.4093C25.5953 27.6798 25.5266 27.918 25.3892 28.1241C25.2562 28.3258 25.0694 28.4846 24.829 28.6006C24.5887 28.7122 24.3075 28.768 23.9855 28.768H23.0004ZM22.086 30.616V26.0507H23.2386V30.616H22.086ZM24.5586 30.616L23.2322 28.6585L24.2688 28.4074L25.8915 30.616H24.5586ZM27.0467 30.616V29.6244H28.1414C28.3989 29.6244 28.6221 29.575 28.811 29.4763C29.0042 29.3775 29.1523 29.2316 29.2553 29.0384C29.3583 28.8409 29.4099 28.6027 29.4099 28.3237C29.4099 28.0489 29.3562 27.8171 29.2489 27.6283C29.1459 27.4351 28.9999 27.2891 28.811 27.1904C28.6221 27.0917 28.3989 27.0423 28.1414 27.0423H26.9952V26.0507H28.1478C28.4998 26.0507 28.8239 26.1065 29.1201 26.2181C29.4163 26.3254 29.6739 26.48 29.8928 26.6817C30.1117 26.8835 30.2813 27.1239 30.4015 27.4029C30.526 27.6819 30.5882 27.991 30.5882 28.3301C30.5882 28.6735 30.526 28.9847 30.4015 29.2638C30.2813 29.5428 30.1117 29.7832 29.8928 29.9849C29.6739 30.1867 29.4163 30.3434 29.1201 30.455C28.8282 30.5623 28.5084 30.616 28.1607 30.616H27.0467ZM26.2676 30.616V26.0507H27.4202V30.616H26.2676Z" fill="black"/>
<path d="M11.541 37.3452C11.1933 37.3452 10.8713 37.2873 10.5751 37.1714C10.2832 37.0512 10.0257 36.8838 9.80247 36.6691C9.58354 36.4545 9.41183 36.2055 9.28734 35.9222C9.16715 35.6346 9.10705 35.3234 9.10705 34.9886C9.10705 34.6494 9.16929 34.3382 9.29378 34.0549C9.42256 33.7673 9.60071 33.5183 9.82822 33.308C10.0557 33.0933 10.3197 32.9281 10.6202 32.8122C10.925 32.692 11.2491 32.6319 11.5925 32.6319C12.0003 32.6319 12.3695 32.7049 12.7 32.8508C13.0306 32.9925 13.2989 33.1899 13.5049 33.4432L12.7322 34.2159C12.5777 34.0313 12.4081 33.8939 12.2235 33.8038C12.039 33.7093 11.8243 33.6621 11.5796 33.6621C11.3307 33.6621 11.1074 33.7179 10.91 33.8295C10.7168 33.9369 10.5623 34.0892 10.4464 34.2867C10.3305 34.4842 10.2725 34.716 10.2725 34.9821C10.2725 35.2483 10.3262 35.4822 10.4335 35.684C10.5451 35.8857 10.6953 36.0424 10.8842 36.154C11.0774 36.2656 11.2985 36.3214 11.5474 36.3214C11.7964 36.3214 12.0068 36.2742 12.1785 36.1798C12.3545 36.0853 12.4875 35.948 12.5777 35.7677C12.6721 35.5874 12.7193 35.3728 12.7193 35.1238L13.4985 35.626L11.4187 35.5745V34.6344H13.8784V34.8083C13.8784 35.3534 13.7796 35.8149 13.5822 36.1927C13.3847 36.5704 13.11 36.858 12.758 37.0555C12.4103 37.2487 12.0046 37.3452 11.541 37.3452ZM13.9023 37.2744L15.673 32.7091H16.787L18.5384 37.2744H17.3343L16.0143 33.4368H16.4329L15.0807 37.2744H13.9023ZM14.9776 36.476V35.5616H17.4953V36.476H14.9776ZM18.9658 37.2744V32.7091H19.7964L21.5479 35.3556H21.1551L22.9 32.7091H23.7307V37.2744H22.591V34.6151L22.7713 34.6666L21.7217 36.2442H20.9748L19.9317 34.6666L20.1119 34.6151V37.2744H18.9658ZM24.5434 37.2744V32.7091H25.6959V37.2744H24.5434ZM25.4577 37.2744V36.3021H27.9303V37.2744H25.4577ZM25.4577 35.42V34.4734H27.6985V35.42H25.4577ZM25.4577 33.6814V32.7091H27.8917V33.6814H25.4577ZM29.8966 37.3452C29.5146 37.3452 29.1819 37.2873 28.8986 37.1714C28.6195 37.0555 28.3641 36.873 28.1323 36.6241L28.8599 35.89C29.0188 36.0574 29.1883 36.1862 29.3686 36.2764C29.5489 36.3622 29.7528 36.4051 29.9803 36.4051C30.1735 36.4051 30.3216 36.373 30.4246 36.3086C30.5319 36.2399 30.5856 36.1476 30.5856 36.0317C30.5856 35.9244 30.5469 35.8364 30.4697 35.7677C30.3924 35.6947 30.2894 35.6325 30.1606 35.581C30.0361 35.5251 29.8966 35.4736 29.7421 35.4264C29.5918 35.3749 29.4394 35.3148 29.2849 35.2461C29.1347 35.1731 28.9951 35.0851 28.8664 34.9821C28.7419 34.8791 28.641 34.7503 28.5637 34.5958C28.4865 34.4412 28.4478 34.2502 28.4478 34.0227C28.4478 33.7308 28.5165 33.4818 28.6539 33.2758C28.7955 33.0697 28.9908 32.9109 29.2398 32.7993C29.4888 32.6877 29.7786 32.6319 30.1091 32.6319C30.4396 32.6319 30.7444 32.6877 31.0234 32.7993C31.3025 32.9109 31.5321 33.0654 31.7124 33.2629L30.9784 33.9905C30.841 33.8531 30.7015 33.7501 30.5598 33.6814C30.4182 33.6128 30.2636 33.5784 30.0962 33.5784C29.9374 33.5784 29.8129 33.6063 29.7228 33.6621C29.6326 33.7179 29.5875 33.7973 29.5875 33.9004C29.5875 34.0034 29.6262 34.0871 29.7034 34.1515C29.7807 34.2159 29.8816 34.2738 30.0061 34.3253C30.1348 34.3726 30.2744 34.4219 30.4246 34.4734C30.5791 34.5249 30.7315 34.585 30.8818 34.6537C31.032 34.7224 31.1694 34.8104 31.2939 34.9177C31.4227 35.025 31.5257 35.1603 31.6029 35.3234C31.6802 35.4865 31.7188 35.684 31.7188 35.9158C31.7188 36.3708 31.5579 36.7228 31.2359 36.9718C30.9183 37.2208 30.4718 37.3452 29.8966 37.3452Z" fill="black"/>
<path fill-rule="evenodd" clip-rule="evenodd" d="M17.0812 14.9285C16.0141 16.6765 14.8225 18.5154 13.5173 20.3737C13.243 20.6486 12.8261 21.3631 13.3527 22.0227C13.6819 22.4624 14.5376 23.21 15.3276 22.6823C16.4802 21.6032 18.1197 20.0311 19.8976 18.2664C21.7723 20.4017 23.56 22.2374 24.8727 23.177C25.0997 23.3394 25.531 23.342 26.1893 22.8473C26.2008 22.8386 26.2126 22.8298 26.2247 22.8207C26.5588 22.5708 27.1017 22.1647 26.8477 21.528C25.9776 20.0996 24.5778 17.7029 23.1373 14.9832C25.144 12.9018 27.0675 10.8034 28.4406 9.09097C28.8561 8.57286 28.7923 7.82709 28.2895 7.39321C27.1807 6.43641 25.5613 5.18347 24.0405 4.39111C23.4186 4.06708 22.6882 4.39252 22.3986 5.0312C21.9066 6.11636 21.2073 7.5578 20.3185 9.24022C19.772 8.01152 19.2788 6.80351 18.8778 5.66727C18.6306 4.9671 17.8726 4.57313 17.1821 4.84591C15.7173 5.42448 13.8017 6.31136 12.5148 7.28683C12.0131 7.66713 11.9763 8.37221 12.3538 8.87609C13.6051 10.5467 15.2945 12.7388 17.0812 14.9285Z" fill="black"/>
</svg>
